<?xml version="1.0" encoding="UTF-8"?>
<svg id="Layer_2" data-name="Layer 2" xmlns="http://www.w3.org/2000/svg" viewBox="0 0 1409.96 575.77">
  <defs>
    <style>
      .cls-1 {
        fill: none;
      }

      .cls-1, .cls-2 {
        stroke-width: 0px;
      }

      .cls-2 {
        fill: #fff;
      }
    </style>
  </defs>
  <g id="Layer_1-2" data-name="Layer 1">
    <g>
      <path class="cls-2" d="m205.58,238.49c.74,1.73,1.72,4.07,2.96,7.03,1.23,2.95,2.46,6.04,3.7,9.24,1.23,3.21,2.27,6.35,3.14,9.42.86,3.09,1.29,5.49,1.29,7.21,0,3.21-1.36,6.41-4.07,9.61-2.72,3.2-7.89,4.81-15.53,4.81h-26.62l-42.52-103.53H51.76v75.8c0,8.13-2.53,14.79-7.58,19.96-5.06,5.18-11.41,7.77-19.04,7.77H0L99.83,29.95h19.6c11.58,28.84,22.8,56.33,33.65,82.46,4.68,11.09,9.43,22.55,14.23,34.38,4.81,11.84,9.55,23.36,14.23,34.58,4.68,11.22,9.06,21.75,13.13,31.61,4.07,9.86,7.7,18.36,10.9,25.51Zm-81.34-64.71l-36.97-89.85-32.17,89.85h69.14Z"/>
      <path class="cls-2" d="m465.14,88c21.2,0,37.77,5.24,49.73,15.71,11.95,10.48,17.93,24.84,17.93,43.07v113.15c0,7.15-2.53,13.25-7.58,18.3-5.06,5.05-11.16,7.58-18.3,7.58h-18.49v-139.4c0-6.65-.99-12.69-2.96-18.12-1.98-5.42-4.56-10.04-7.77-13.87-3.21-3.81-6.97-6.84-11.28-9.06-4.31-2.22-8.69-3.33-13.13-3.33-7.64,0-15.29,2.65-22.93,7.95-7.64,5.3-15.41,11.03-23.29,17.19v132.74c0,7.15-2.53,13.25-7.58,18.3-5.06,5.05-11.16,7.58-18.3,7.58h-18.49v-139.4c0-6.65-.99-12.69-2.96-18.12-1.98-5.42-4.56-10.04-7.77-13.87-3.21-3.81-6.97-6.84-11.28-9.06-4.31-2.22-8.69-3.33-13.13-3.33-7.64,0-15.29,2.65-22.93,7.95-7.64,5.3-15.41,11.03-23.29,17.19v132.74c0,7.15-2.53,13.25-7.58,18.3-5.06,5.05-11.16,7.58-18.3,7.58h-18.49V119.06c0-7.14,2.52-13.18,7.58-18.11,5.05-4.93,11.15-7.39,18.3-7.39h18.49v23.29c3.94-2.95,8.01-6.1,12.2-9.42,4.19-3.33,8.69-6.47,13.5-9.43,4.81-2.96,9.92-5.36,15.34-7.21,5.42-1.85,11.09-2.77,17.01-2.77,15.53,0,28.53,2.77,39.01,8.32,10.47,5.55,18.18,13.49,23.11,23.85,7.64-5.91,15.28-11.22,22.93-15.9,6.41-4.19,13.25-7.94,20.52-11.27,7.27-3.33,13.99-4.99,20.15-4.99Z"/>
      <path class="cls-2" d="m652.97,88c13.31,0,25.45,2.83,36.42,8.5,10.97,5.68,20.39,13.31,28.29,22.93,7.89,9.61,14.05,20.95,18.49,34.01,4.43,13.07,6.65,26.99,6.65,41.78,0,13.31-2.28,25.82-6.84,37.52-4.56,11.71-10.79,21.88-18.67,30.5-7.89,8.64-17.01,15.48-27.36,20.52-10.36,5.05-21.33,7.58-32.91,7.58s-21.44-2.59-31.06-7.77c-9.61-5.17-17.75-12.07-24.4-20.7l-44.37,22.93V25.51c0-7.15,2.52-13.19,7.58-18.12,5.05-4.93,11.15-7.39,18.3-7.39h18.49v110.56c1.72-2.22,4.07-4.68,7.03-7.39,2.96-2.71,6.59-5.18,10.9-7.39,4.31-2.22,9.3-4.07,14.98-5.55,5.67-1.48,11.83-2.22,18.49-2.22Zm-25.51,178.58c8.88,0,17.38-2.03,25.51-6.1,8.13-4.07,15.34-9.85,21.63-17.38,6.29-7.52,11.28-16.83,14.97-27.92,3.7-11.09,5.55-23.66,5.55-37.71,0-12.32-1.48-23.48-4.44-33.47-2.96-9.98-6.84-18.49-11.64-25.51-4.81-7.03-10.11-12.45-15.9-16.27-5.8-3.82-11.53-5.73-17.19-5.73-8.88,0-17.44,2.4-25.7,7.21-8.26,4.8-14.48,10.66-18.67,17.56v133.48c3.45,3.45,7.33,6.28,11.65,8.5,4.31,2.22,9.06,3.33,14.23,3.33Z"/>
      <path class="cls-2" d="m927.58,88.16c-5.92,0-11.24,1.92-15.82,5.69-4.51,3.77-7.47,8.43-8.95,14.05-2.81-2.96-5.33-5.4-7.54-7.39-5.18-4.66-8.65-6.95-10.58-8.28-4.07-2.74-8.65-5.03-13.83-6.88s-11.09-2.74-17.75-2.74c-13.31,0-25.59,2.51-36.83,7.54-11.24,5.1-20.93,12.13-29.21,21.08-8.28,9.02-14.72,19.74-19.37,32.17-4.73,12.5-7.03,26.1-7.03,40.89,0,13.31,2.14,25.73,6.43,37.34,4.66,12.5,10.8,21,12.42,23.3,2.29,3.03,4.36,5.47,5.92,7.17l19.67-22.41-.08-63.52c0-10.13,1.11-19.74,3.48-28.84,2.37-9.1,5.62-17.08,9.83-23.89,4.14-6.73,9.24-12.2,15.16-16.27,5.92-4.07,12.42-6.06,19.6-6.06,11.09,0,20.63,2.81,28.62,8.5,7.69,5.47,15.83,10.58,21.3,18.04.22.22.37.52.59.81l-.07.15c-.52,44.3-1.11,88.67-1.63,132.96v28.84h18.64c7.17,0,13.24-2.51,18.27-7.62,4.96-5.03,7.47-11.09,7.47-18.27V88.16h-18.71Z"/>
      <path class="cls-1" d="m946.22,93.56v166.39c0,7.17-2.51,13.24-7.47,18.27-5.03,5.1-11.09,7.62-18.27,7.62h-18.64v-28.84l.74-143.46c1.48-5.69,4.51-10.43,9.1-14.27,4.58-3.77,9.91-5.69,15.82-5.69h18.71Z"/>
      <path class="cls-2" d="m247.86,542.49c8.87,0,17.19-1.48,24.96-4.44,7.76-2.95,14.91-6.84,21.44-11.65,6.53-4.8,12.44-10.17,17.75-16.08,5.3-5.91,9.8-11.83,13.5-17.74l7.02,3.7c-5.17,9.61-11.09,19.17-17.75,28.66-6.65,9.49-14.36,18-23.11,25.51-8.75,7.52-18.74,13.63-29.95,18.31-11.22,4.68-24.22,7.03-39.01,7.03-17.51,0-34.02-3.52-49.55-10.54-15.53-7.02-29.02-16.57-40.49-28.66-11.46-12.07-20.52-26.19-27.18-42.33-6.65-16.14-9.98-33.47-9.98-51.95s3.08-35.8,9.24-51.95c6.16-16.14,14.66-30.26,25.51-42.34,10.84-12.07,23.78-21.63,38.82-28.66,15.03-7.02,31.3-10.54,48.8-10.54,13.31,0,26.25,1.67,38.82,4.99,12.57,3.33,23.67,8.02,33.28,14.05,9.62,6.04,17.38,13.44,23.3,22.18,5.91,8.75,8.87,18.68,8.87,29.77,0,5.67-1.66,10.66-4.99,14.97-3.33,4.32-7.83,6.47-13.5,6.47h-33.28c0-12.52-1.23-23.93-3.7-34.24-2.47-10.31-5.98-19.14-10.54-26.5-4.56-7.36-10.05-13.07-16.45-17.12-6.41-4.04-13.56-6.07-21.44-6.07-9.37,0-18.3,2.59-26.81,7.75-8.5,5.17-15.96,12.25-22.37,21.23-6.41,8.98-11.53,19.56-15.35,31.75-3.82,12.18-5.73,25.41-5.73,39.68,0,19.45,3.02,36.92,9.06,52.42,6.04,15.5,13.8,28.61,23.29,39.31,9.49,10.71,20.15,18.88,31.98,24.55,11.83,5.66,23.67,8.49,35.5,8.49Z"/>
      <path class="cls-2" d="m544.4,377.95v166.39c0,7.15-2.49,13.25-7.46,18.3-4.97,5.05-11.06,7.58-18.27,7.58h-18.64v-28.84c-6.65,8.88-14.18,15.9-22.56,21.07-8.38,5.18-18.12,7.77-29.21,7.77-13.31,0-25.46-2.53-36.42-7.58-10.97-5.05-20.4-11.95-28.28-20.7-7.89-8.75-13.99-18.91-18.3-30.5-4.31-11.58-6.47-24.03-6.47-37.34,0-14.79,2.34-28.41,7.03-40.86,4.68-12.44,11.15-23.17,19.41-32.17,8.25-9,17.99-16.02,29.21-21.08,11.22-5.05,23.48-7.58,36.79-7.58,6.65,0,12.57.92,17.75,2.77,5.18,1.85,9.8,4.13,13.87,6.84,4.07,2.72,7.58,5.49,10.54,8.32,2.96,2.84,5.42,5.36,7.39,7.58,1.49-5.66,4.54-10.41,9.13-14.23,4.6-3.82,9.89-5.73,15.86-5.73h18.64Zm-44.37,31.8c-5.43-7.89-12.14-14.67-20.15-20.34-8.01-5.67-17.56-8.51-28.66-8.51-7.15,0-13.68,2.04-19.6,6.1-5.92,4.07-10.97,9.49-15.16,16.27-4.19,6.78-7.46,14.73-9.8,23.85-2.35,9.12-3.51,18.74-3.51,28.84,0,14.05,2.03,26.62,6.1,37.71,4.07,11.09,9.43,20.47,16.08,28.1,6.65,7.65,14.23,13.5,22.74,17.56,8.5,4.07,17.19,6.1,26.07,6.1,5.17,0,9.92-1.16,14.23-3.51,4.31-2.34,8.19-5.24,11.65-8.69v-123.5Z"/>
      <path class="cls-2" d="m626.48,406.79c0,7.89,2.81,14.92,8.45,21.08,5.63,6.16,12.61,11.89,20.94,17.19,8.33,5.31,17.39,10.42,27.18,15.35,9.79,4.93,18.85,10.17,27.18,15.71,8.33,5.55,15.31,11.78,20.94,18.68,5.63,6.9,8.45,14.91,8.45,24.03,0,8.38-2.16,16.02-6.47,22.92-4.32,6.9-10.17,12.88-17.56,17.93-7.39,5.06-16.15,9-26.25,11.84-10.11,2.83-20.95,4.25-32.54,4.25-10.6,0-21.08-1.24-31.43-3.7-10.35-2.47-19.66-5.98-27.92-10.54-8.26-4.56-14.92-10.17-19.97-16.82-5.06-6.66-7.58-14.18-7.58-22.55,0-4.19,1.35-8.51,4.07-12.94,2.71-4.44,6.29-6.66,10.72-6.66h34.39c0,9.37,1.11,18.12,3.33,26.25,2.22,8.14,5.3,15.16,9.24,21.08,3.94,5.91,8.56,10.6,13.87,14.05,5.3,3.45,11.15,5.18,17.56,5.18,8.63,0,15.34-2.83,20.15-8.51,4.81-5.66,7.21-13.43,7.21-23.29,0-8.38-2.89-15.84-8.66-22.37-5.78-6.53-12.9-12.57-21.38-18.12-8.48-5.55-17.75-10.9-27.83-16.08-10.08-5.18-19.35-10.66-27.83-16.45-8.48-5.79-15.61-12.2-21.38-19.23-5.78-7.02-8.66-15.09-8.66-24.21,0-8.14,2.4-15.22,7.19-21.26,4.8-6.04,11-11.09,18.63-15.16,7.63-4.07,16.23-7.08,25.82-9.06,9.59-1.97,19.31-2.95,29.15-2.95,8.11,0,16.9.98,26.37,2.95,9.47,1.98,18.26,4.93,26.38,8.88,8.12,3.94,14.94,8.94,20.48,14.98,5.53,6.04,8.3,13.12,8.3,21.26,0,4.43-.68,8.01-2.03,10.72-1.36,2.72-3.09,4.87-5.18,6.47-2.1,1.61-4.38,2.72-6.84,3.33-2.47.62-4.81.92-7.03.92h-28.1c0-9.37-.55-17.93-1.65-25.69-1.1-7.76-2.86-14.42-5.3-19.97-2.44-5.55-5.78-9.86-10.05-12.94-4.26-3.08-9.44-4.62-15.52-4.62-10.23,0-17.6,2.59-22.11,7.76s-6.76,11.96-6.76,20.34Z"/>
      <path class="cls-2" d="m871.99,372.41c21.2,0,37.72,5.24,49.55,15.71,11.83,10.48,17.75,24.84,17.75,43.07v113.15c0,7.15-2.47,13.25-7.39,18.3-4.93,5.05-10.97,7.58-18.12,7.58h-18.86v-139.4c0-13.31-3.57-24.03-10.72-32.17-7.15-8.14-16.27-12.2-27.36-12.2-3.95,0-8.08.74-12.39,2.22-4.32,1.48-8.75,3.39-13.31,5.73-4.56,2.35-9.06,5.06-13.49,8.13-4.44,3.09-8.63,6.1-12.57,9.06v132.74c0,7.15-2.53,13.25-7.58,18.3-5.06,5.05-11.16,7.58-18.3,7.58h-18.49V189.69c0-7.15,2.52-13.19,7.58-18.12,5.05-4.93,11.15-7.39,18.3-7.39h18.49v237.07c3.94-2.95,8.5-6.1,13.68-9.42,5.17-3.33,10.66-6.47,16.45-9.43,5.79-2.96,11.83-5.36,18.12-7.21,6.29-1.85,12.51-2.77,18.67-2.77Z"/>
      <path class="cls-2" d="m992.16,366.11c-7.15,0-13.31-2.59-18.49-7.76-5.17-5.18-7.76-11.34-7.76-18.49s2.59-13.31,7.76-18.49c5.18-5.18,11.34-7.76,18.49-7.76s13.25,2.59,18.3,7.76c5.05,5.18,7.58,11.34,7.58,18.49s-2.53,13.31-7.58,18.49c-5.06,5.18-11.15,7.76-18.3,7.76Zm-22.18,37.34c0-7.14,2.46-13.18,7.39-18.11,4.93-4.93,10.97-7.39,18.12-7.39h18.86v166.39c0,7.15-2.53,13.25-7.58,18.3-5.06,5.05-11.15,7.58-18.3,7.58h-18.49v-166.76Z"/>
      <path class="cls-2" d="m1223.98,516.23c-7.15,19.48-18.43,34.2-33.83,44.19-15.41,9.98-32.97,14.97-52.69,14.97-14.05,0-27.18-2.65-39.38-7.94-12.2-5.3-22.74-12.57-31.61-21.82-8.87-9.24-15.9-19.97-21.08-32.17-5.17-12.2-7.76-25.33-7.76-39.37s2.59-27.24,7.78-39.57c5.19-12.32,12.23-23.11,21.12-32.35,8.89-9.24,19.45-16.51,31.68-21.82,12.22-5.29,25.38-7.94,39.46-7.94,10.62,0,20.56,1.17,29.83,3.51,9.26,2.35,17.29,5.68,24.09,9.98,6.79,4.32,12.16,9.43,16.12,15.35,3.95,5.91,5.93,12.45,5.93,19.6,0,14.54-4.16,26.5-12.48,35.86-8.32,9.37-18.61,16.83-30.87,22.37-12.27,5.55-25.3,9.61-39.1,12.2-13.81,2.59-26.38,4.62-37.72,6.1,3.2,10.85,7.27,19.66,12.2,26.44,4.93,6.78,10.47,12.08,16.64,15.9,6.16,3.82,12.63,6.41,19.41,7.76,6.77,1.36,13.74,2.03,20.89,2.03s13.68-1.1,19.6-3.32c5.92-2.22,11.28-5.06,16.09-8.51s8.99-7.33,12.57-11.65c3.57-4.31,6.72-8.56,9.43-12.75l3.7,2.95Zm-135.33-54.35c0,5.91.31,11.46.92,16.64.61,5.18,1.54,10.23,2.77,15.16,13.56-5.67,24.83-11.89,33.83-18.67,8.99-6.78,16.14-13.87,21.44-21.26,5.3-7.39,8.99-14.91,11.09-22.56,2.09-7.63,3.14-15.28,3.14-22.92,0-6.66-2.03-12.88-6.1-18.68-4.07-5.78-9.56-8.69-16.45-8.69-5.91,0-11.83,2.1-17.75,6.29-5.92,4.19-11.34,9.86-16.27,17.01-4.93,7.15-8.94,15.71-12.02,25.69-3.08,9.99-4.62,20.65-4.62,31.98Z"/>
      <path class="cls-2" d="m1365.7,372.4c7.37,0,13.83,1.05,19.36,3.14,5.54,2.09,10.15,4.87,13.83,8.32s6.45,7.46,8.3,12.02c1.84,4.56,2.77,9.31,2.77,14.23s-.86,9.24-2.57,12.94c-1.71,3.7-3.97,6.72-6.79,9.06-2.81,2.35-5.99,4.07-9.54,5.18-3.55,1.11-7.28,1.67-11.19,1.67h-18.35v-12.57c0-6.41-1.61-11.71-4.81-15.9-3.21-4.19-8.38-6.28-15.53-6.28-5.42,0-10.72,2.09-15.9,6.28-5.18,4.2-10.05,9.61-14.61,16.27-4.56,6.66-8.5,14.3-11.83,22.92-3.33,8.64-5.86,17.38-7.58,26.26v68.4c0,7.15-2.53,13.25-7.58,18.3-5.06,5.05-11.16,7.58-18.3,7.58h-18.49v-166.76c0-7.14,2.52-13.18,7.58-18.11,5.05-4.93,11.15-7.39,18.3-7.39h18.49l-.1,73.57c2.46-9.85,5.96-19.53,10.51-29.02,4.55-9.48,10.02-17.93,16.41-25.33,6.4-7.39,13.59-13.37,21.59-17.93,7.99-4.56,16.66-6.84,26.01-6.84Z"/>
      <path class="cls-2" d="m903.62,117.66v.81c-.22-.3-.37-.59-.59-.81h.59Z"/>
      <path class="cls-2" d="m903.55,118.62l.07-.15v161.95h-1.7v-28.84c.52-44.3,1.11-88.67,1.63-132.96Z"/>
      <path class="cls-2" d="m893.21,211.73c-29.06,8.59-33.58,15.56-39.15,60.33-5.58-44.78-10.1-51.74-39.15-60.33,29.06-8.59,33.58-15.56,39.15-60.33,5.58,44.78,10.1,51.74,39.15,60.33Z"/>
    </g>
  </g>
</svg>